<svg width="32" height="32" viewBox="0 0 32 32" fill="none" xmlns="http://www.w3.org/2000/svg">
<path opacity="0.2" d="M16 32C24.8366 32 32 24.8366 32 16C32 7.16344 24.8366 0 16 0C7.16344 0 0 7.16344 0 16C0 24.8366 7.16344 32 16 32Z" fill="white"/>
<path d="M11.5675 16.9599H13.885V22.3599C13.885 23.6199 14.5675 23.8749 15.4 22.9299L21.0775 16.4799C21.775 15.6924 21.4825 15.0399 20.425 15.0399H18.1075V9.63992C18.1075 8.37992 17.425 8.12492 16.5925 9.06992L10.915 15.5199C10.225 16.3149 10.5175 16.9599 11.5675 16.9599Z" stroke="white" stroke-width="1.5" stroke-miterlimit="10" stroke-linecap="round" stroke-linejoin="round"/>
</svg>
